<?xml version="1.0" standalone="no"?><!DOCTYPE svg PUBLIC "-//W3C//DTD SVG 1.1//EN" "http://www.w3.org/Graphics/SVG/1.1/DTD/svg11.dtd"><svg t="1678165041810" class="icon" viewBox="0 0 1024 1024" version="1.1" xmlns="http://www.w3.org/2000/svg" p-id="14564" xmlns:xlink="http://www.w3.org/1999/xlink" width="200" height="200"><path d="M903.533714 256.731429a36.571429 36.571429 0 0 1 10.752 25.892571V987.428571a36.571429 36.571429 0 0 1-36.571428 36.571429H146.285714a36.571429 36.571429 0 0 1-36.571428-36.571429V36.571429A36.571429 36.571429 0 0 1 146.285714 0h485.376c9.728 0 19.017143 3.876571 25.965715 10.752l245.906285 246.052571z m-73.581714 42.715428l-215.04-215.04v215.04h215.04zM265.142857 82.285714v73.142857h73.142857v-73.142857h-73.142857z m73.142857 73.142857v73.142858h73.142857v-73.142858h-73.142857z m-73.142857 73.142858v73.142857h73.142857v-73.142857h-73.142857z m73.142857 73.142857v73.142857h73.142857v-73.142857h-73.142857z m-73.142857 73.142857v73.142857h73.142857v-73.142857h-73.142857z m73.142857 73.142857v73.142857h73.142857v-73.142857h-73.142857z m-73.142857 73.142857v73.142857h73.142857v-73.142857h-73.142857z m0 73.142857v182.857143h146.285714v-182.857143h-146.285714z m54.857143 54.857143h36.571429v73.142857h-36.571429v-73.142857z" fill="#000000" p-id="14565"></path></svg>