<?xml version="1.0" standalone="no"?><!DOCTYPE svg PUBLIC "-//W3C//DTD SVG 1.1//EN" "http://www.w3.org/Graphics/SVG/1.1/DTD/svg11.dtd"><svg t="1678116113219" class="icon" viewBox="0 0 1025 1024" version="1.1" xmlns="http://www.w3.org/2000/svg" p-id="2755" xmlns:xlink="http://www.w3.org/1999/xlink" width="200.1953125" height="200"><path d="M512.80699 1024c-13.631148 0-25.5984-5.11968-35.773764-15.35904-20.47872-20.350728-20.47872-52.668708 0-71.35554L902.990604 512.031998 477.033226 86.778576c-20.47872-20.350728-20.47872-52.668708 0-71.419536 20.47872-20.414724 52.7967-20.414724 71.547528 0l461.731142 460.96319c20.47872 20.414724 20.47872 52.732704 0 71.419536l-461.731142 460.96319a51.964752 51.964752 0 0 1-35.773764 15.295044z" fill="#f1f1f1" p-id="2756"></path><path d="M972.81024 563.03681H51.20384A50.172864 50.172864 0 0 1 0.00704 512.031998c0-28.926192 22.142616-51.004812 51.132804-51.004812H972.746244c28.990188 0 51.132804 22.07862 51.132804 51.004812a50.172864 50.172864 0 0 1-51.132804 51.004812z" fill="#f1f1f1" p-id="2757"></path></svg>